/* XPM */
static char * player_xpm[] = {
"21 21 311 2",
"  	c None",
". 	c #C9C7C0",
"+ 	c #C6C9C5",
"@ 	c #C7D7B1",
"# 	c #BACA58",
"$ 	c #B6CA71",
"% 	c #BDD597",
"& 	c #C8DFA8",
"* 	c #BFBDA3",
"= 	c #A3A29E",
"- 	c #979A99",
"; 	c #A6BBA3",
"> 	c #A9CA62",
", 	c #A7B93B",
"' 	c #99AA63",
") 	c #A2A7A4",
"! 	c #B7C5CB",
"~ 	c #C2D5DC",
"{ 	c #AFAE9C",
"] 	c #949791",
"^ 	c #84867A",
"/ 	c #92A96E",
"( 	c #8DB64B",
"_ 	c #99C451",
": 	c #ADCC4E",
"< 	c #C3D75E",
"[ 	c #C7DA65",
"} 	c #C6D655",
"| 	c #BCCE48",
"1 	c #C3D55A",
"2 	c #C3D661",
"3 	c #A5BD39",
"4 	c #86A333",
"5 	c #869073",
"6 	c #97A5A4",
"7 	c #95AAAD",
"8 	c #A8C1CA",
"9 	c #A4A399",
"0 	c #838777",
"a 	c #787E51",
"b 	c #86A243",
"c 	c #80A639",
"d 	c #76A024",
"e 	c #A3BE43",
"f 	c #C0D55C",
"g 	c #C3D961",
"h 	c #C7DA62",
"i 	c #C5D758",
"j 	c #C5D969",
"k 	c #BFD96C",
"l 	c #A6C75F",
"m 	c #83A73D",
"n 	c #8BA68F",
"o 	c #82A29F",
"p 	c #8FAFB6",
"q 	c #97B6BD",
"r 	c #A4A68A",
"s 	c #7E8A53",
"t 	c #83942E",
"u 	c #7D9829",
"v 	c #8EA730",
"w 	c #9FB536",
"x 	c #ADC140",
"y 	c #AEC347",
"z 	c #AEC443",
"A 	c #B8CD54",
"B 	c #B8CF59",
"C 	c #B4CE57",
"D 	c #B7D570",
"E 	c #9EC869",
"F 	c #7EAD48",
"G 	c #90BD78",
"H 	c #8BAD93",
"I 	c #9DB7B6",
"J 	c #B0CBD0",
"K 	c #B5C15F",
"L 	c #97AA3C",
"M 	c #8EA425",
"N 	c #93A82A",
"O 	c #95AA2E",
"P 	c #A0B433",
"Q 	c #AAB865",
"R 	c #A6B847",
"S 	c #A6B941",
"T 	c #A1B441",
"U 	c #ABC669",
"V 	c #A2BF61",
"W 	c #A3CB69",
"X 	c #A7D074",
"Y 	c #A2C969",
"Z 	c #A1C96E",
"` 	c #9EC46D",
" .	c #A2C28C",
"..	c #B1C14B",
"+.	c #9BB231",
"@.	c #98AC2D",
"#.	c #AAB57C",
"$.	c #AFB790",
"%.	c #B4B7AB",
"&.	c #ABB297",
"*.	c #93A071",
"=.	c #929876",
"-.	c #99AE8C",
";.	c #A5B7B0",
">.	c #A2C39D",
",.	c #B3CAC3",
"'.	c #AECCAD",
").	c #A1C670",
"!.	c #A1C461",
"~.	c #A7C65B",
"{.	c #B3D07D",
"].	c #A7B63A",
"^.	c #A0B83D",
"/.	c #849E24",
"(.	c #B1B98B",
"_.	c #B7B9A8",
":.	c #B6B8AB",
"<.	c #B2B4A7",
"[.	c #AFB4A8",
"}.	c #AFB6AC",
"|.	c #AEB0A5",
"1.	c #A3B0AE",
"2.	c #A3AFAD",
"3.	c #ADC3C6",
"4.	c #B2C3C5",
"5.	c #B7CED2",
"6.	c #ACC7C3",
"7.	c #A0BD5A",
"8.	c #A7C655",
"9.	c #AFCF70",
"0.	c #A9B153",
"a.	c #A6B63F",
"b.	c #95AE32",
"c.	c #9DAC62",
"d.	c #A7A796",
"e.	c #757467",
"f.	c #59584D",
"g.	c #626356",
"h.	c #8C8F80",
"i.	c #A3AAA0",
"j.	c #AAB0A5",
"k.	c #97A39F",
"l.	c #809090",
"m.	c #647477",
"n.	c #5A6A6C",
"o.	c #798A8C",
"p.	c #93AAA7",
"q.	c #9EB857",
"r.	c #A1C14D",
"s.	c #A7C963",
"t.	c #A4B23E",
"u.	c #9DB43C",
"v.	c #90A13E",
"w.	c #6B753F",
"x.	c #93948B",
"y.	c #A0A296",
"z.	c #70716A",
"A.	c #585952",
"B.	c #707365",
"C.	c #8C948B",
"D.	c #556161",
"E.	c #677A81",
"F.	c #83999E",
"G.	c #9FBBC0",
"H.	c #7A8F84",
"I.	c #93B058",
"J.	c #96B44F",
"K.	c #A0C462",
"L.	c #9BC566",
"M.	c #A6B33D",
"N.	c #8DA427",
"O.	c #A2B438",
"P.	c #8EA03D",
"Q.	c #A2A795",
"R.	c #929686",
"S.	c #0D0D0C",
"T.	c #707361",
"U.	c #616F33",
"V.	c #697B2F",
"W.	c #657A59",
"X.	c #5C6D71",
"Y.	c #293234",
"Z.	c #A3BCBE",
"`.	c #859A88",
" +	c #A2BF59",
".+	c #A2C561",
"++	c #A1C76B",
"@+	c #9BC76A",
"#+	c #9AA54D",
"$+	c #95A527",
"%+	c #A0B130",
"&+	c #90A32E",
"*+	c #A4B455",
"=+	c #A8B278",
"-+	c #9AAB4D",
";+	c #9DB141",
">+	c #91A835",
",+	c #91AB3D",
"'+	c #6F883A",
")+	c #97AE8E",
"!+	c #9AB3AC",
"~+	c #9BB5B5",
"{+	c #788A4A",
"]+	c #9CB853",
"^+	c #A3C768",
"/+	c #A7CB6F",
"(+	c #A7CC82",
"_+	c #96A335",
":+	c #9DAC38",
"<+	c #9CAD35",
"[+	c #94A833",
"}+	c #93A635",
"|+	c #8B9F2C",
"1+	c #859A2C",
"2+	c #88A135",
"3+	c #839E34",
"4+	c #86A035",
"5+	c #8FAB44",
"6+	c #8FAE58",
"7+	c #8BA85A",
"8+	c #95B44F",
"9+	c #92B558",
"0+	c #91B75B",
"a+	c #9FC367",
"b+	c #96A33C",
"c+	c #7F8C28",
"d+	c #7A8825",
"e+	c #7F922E",
"f+	c #6E8222",
"g+	c #758826",
"h+	c #7C912C",
"i+	c #768B2A",
"j+	c #809834",
"k+	c #839D3D",
"l+	c #7E9B3D",
"m+	c #85A344",
"n+	c #8EB156",
"o+	c #8CB056",
"p+	c #86AE59",
"q+	c #83AD5B",
"r+	c #86B462",
"s+	c #98A750",
"t+	c #778624",
"u+	c #6D7925",
"v+	c #687333",
"w+	c #5E6931",
"x+	c #67723D",
"y+	c #74824E",
"z+	c #656D4B",
"A+	c #6C7A4F",
"B+	c #798F61",
"C+	c #748F76",
"D+	c #7B9575",
"E+	c #769489",
"F+	c #749280",
"G+	c #6D9153",
"H+	c #7AAB5C",
"I+	c #8BB969",
"J+	c #94A234",
"K+	c #7F8E29",
"L+	c #4A4F12",
"M+	c #2C2825",
"N+	c #72746D",
"O+	c #606059",
"P+	c #646461",
"Q+	c #6C6F68",
"R+	c #75827E",
"S+	c #7D9095",
"T+	c #808F91",
"U+	c #788B90",
"V+	c #749577",
"W+	c #769F51",
"X+	c #81B05C",
"Y+	c #85B560",
"Z+	c #9CAA41",
"`+	c #819223",
" @	c #7A8726",
".@	c #707A5C",
"+@	c #62674E",
"@@	c #6D7565",
"#@	c #707766",
"$@	c #4E503B",
"%@	c #676B5D",
"&@	c #6C786C",
"*@	c #687E6E",
"=@	c #6E8775",
"-@	c #84AE67",
";@	c #80B05D",
">@	c #80B05B",
",@	c #788721",
"'@	c #7C8C29",
")@	c #859731",
"!@	c #82942E",
"~@	c #879933",
"{@	c #889D37",
"]@	c #809B45",
"^@	c #769945",
"/@	c #7CA34E",
"(@	c #7DA755",
"_@	c #82AF5F",
":@	c #84B162",
"<@	c #6C7920",
"[@	c #6C7D29",
"}@	c #6D8029",
"|@	c #687D27",
"1@	c #667F2E",
"2@	c #688939",
"3@	c #69903F",
"4@	c #689242",
"5@	c #77A452",
"6@	c #80AB5A",
"                                          ",
"    . + @                       # $ % &   ",
"  * = - ; >                   , ' ) ! ~   ",
"  { ] ^ / ( _ : < [ } | 1 2 3 4 5 6 7 8   ",
"  9 0 a b c d e f g h i j k l m n o p q   ",
"  r s t u v w x y z A B C D E F G H I J   ",
"  K L M N O P Q R S T U V W X Y Z `  .    ",
"  ..y +.@.#.$.%.&.*.=.-.;.>.,.'.).!.~.{.  ",
"  ].^./.(._.:.<.[.}.|.1.2.3.4.5.6.7.8.9.  ",
"0.a.b.c.d.e.f.g.h.i.j.k.l.m.n.o.p.q.r.s.  ",
"  t.u.v.w.x.y.z.A.B.C.D.E.F.G.H.I.J.K.L.  ",
"  M.N.O.P.Q.R.S.T.U.V.W.X.Y.Z.`. +.+++@+  ",
"  #+$+%+&+*+=+-+;+>+,+'+)+!+~+{+]+^+/+(+  ",
"    _+:+<+[+}+|+1+2+3+4+5+6+7+8+9+0+a+    ",
"    b+c+d+e+f+g+h+i+j+k+l+m+n+o+p+q+r+    ",
"    s+t+u+v+w+x+y+z+A+B+C+D+E+F+G+H+I+    ",
"      J+K+L+M+N+O+P+Q+R+S+T+U+V+W+X+Y+    ",
"      Z+`+ @.@+@@@#@$@%@&@*@=@-@;@>@      ",
"          ,@'@)@!@~@{@]@^@/@(@_@:@        ",
"            <@[@}@|@1@2@3@4@5@6@          ",
"                                          "};
