/* XPM */
static char * player_xpm[] = {
"10 10 49 1",
" 	c None",
".	c #BEC33B",
"+	c #BDC336",
"@	c #B5BD2D",
"#	c #A2AF57",
"$	c #C6C799",
"%	c #CDCDB2",
"&	c #C5C8AD",
"*	c #C4D1B2",
"=	c #B7CB9E",
"-	c #9AB53D",
";	c #C3C849",
">	c #A8A89A",
",	c #999893",
"'	c #939592",
")	c #8E9491",
"!	c #99A571",
"~	c #ABC13B",
"{	c #98B440",
"]	c #C4CA46",
"^	c #BDBF68",
"/	c #B5BA4A",
"(	c #AFB965",
"_	c #A5AC8A",
":	c #B0C042",
"<	c #A5BF3B",
"[	c #869D28",
"}	c #C3C84A",
"|	c #ACAD45",
"1	c #B5B877",
"2	c #A7B069",
"3	c #ACB668",
"4	c #A0B04B",
"5	c #9DB740",
"6	c #8CA633",
"7	c #CFD357",
"8	c #C2C471",
"9	c #B5B878",
"0	c #ACB474",
"a	c #AFB986",
"b	c #94A337",
"c	c #A1BA43",
"d	c #89A93A",
"e	c #C1C541",
"f	c #BFC54D",
"g	c #B8C445",
"h	c #AFC03A",
"i	c #A5BF45",
"j	c #99B744",
"          ",
"   .+@#   ",
"  $%&*=-  ",
" ;>,')!~{ ",
" ]^/(_:<[ ",
" }|123456 ",
" 7890abcd ",
"  efghij  ",
"          ",
"          "};
