/* XPM */
static char * sky_xpm[] = {
"64 64 131 2",
"  	c #A38972",
". 	c #A88E77",
"+ 	c #AC927B",
"@ 	c #AB917A",
"# 	c #A68C76",
"$ 	c #A98F78",
"% 	c #AA9079",
"& 	c #A78D76",
"* 	c #A88F78",
"= 	c #A88E78",
"- 	c #AD937C",
"; 	c #AB927B",
"> 	c #AA907A",
", 	c #A78D77",
"' 	c #AC937C",
") 	c #A99079",
"! 	c #AB917B",
"~ 	c #8A7059",
"{ 	c #8E745D",
"] 	c #917760",
"^ 	c #886E57",
"/ 	c #8C725B",
"( 	c #8D745D",
"_ 	c #8D735C",
": 	c #886F58",
"< 	c #8B715A",
"[ 	c #8E745E",
"} 	c #907660",
"| 	c #90765F",
"1 	c #8F755E",
"2 	c #8B715B",
"3 	c #8C735C",
"4 	c #8A715A",
"5 	c #866C55",
"6 	c #856B54",
"7 	c #896F58",
"8 	c #846A53",
"9 	c #836952",
"0 	c #896F59",
"a 	c #876D56",
"b 	c #947A63",
"c 	c #917761",
"d 	c #957B64",
"e 	c #927861",
"f 	c #897059",
"g 	c #826851",
"h 	c #937962",
"i 	c #977D66",
"j 	c #977D67",
"k 	c #967C65",
"l 	c #8D735D",
"m 	c #917861",
"n 	c #947B64",
"o 	c #987E67",
"p 	c #927962",
"q 	c #866D56",
"r 	c #8F755F",
"s 	c #8F765F",
"t 	c #937963",
"u 	c #8C725C",
"v 	c #947A64",
"w 	c #8C725A",
"x 	c #8A7058",
"y 	c #896F57",
"z 	c #886E56",
"A 	c #876D55",
"B 	c #8B7159",
"C 	c #8E745C",
"D 	c #8E755D",
"E 	c #90765E",
"F 	c #91775F",
"G 	c #8D735B",
"H 	c #826850",
"I 	c #846A54",
"J 	c #8D735A",
"K 	c #8A7057",
"L 	c #886E55",
"M 	c #876D54",
"N 	c #896F56",
"O 	c #8C7259",
"P 	c #866C53",
"Q 	c #856B52",
"R 	c #8B7158",
"S 	c #91775E",
"T 	c #8F755C",
"U 	c #846A51",
"V 	c #90765D",
"W 	c #92785F",
"X 	c #876E57",
"Y 	c #8E745B",
"Z 	c #846A52",
"` 	c #937960",
" .	c #836950",
"..	c #886F55",
"+.	c #82684F",
"@.	c #866C54",
"#.	c #957B62",
"$.	c #967C63",
"%.	c #927960",
"&.	c #917860",
"*.	c #947A61",
"=.	c #947A62",
"-.	c #856B53",
";.	c #836951",
">.	c #8F755D",
",.	c #927860",
"'.	c #937961",
").	c #856C53",
"!.	c #80664D",
"~.	c #81674E",
"{.	c #997F66",
"].	c #977D64",
"^.	c #8E755C",
"/.	c #886F56",
"(.	c #897057",
"_.	c #8A7056",
":.	c #8B7259",
"<.	c #987E65",
"[.	c #957C63",
"}.	c #9B8168",
"|.	c #816750",
"1.	c #8D745B",
"2.	c #876E55",
"3.	c #967C64",
"4.	c #957B63",
"5.	c #866C56",
"6.	c #866D54",
"7.	c #80664E",
"8.	c #8C735A",
"9.	c #856B55",
"0.	c #886E58",
"~ { ] { ~ ^ / ( _ / _ _ : < [ } | { { 1 | | 1 _ / / _ { { { { _ _ / / < < < 2 / / / / / / / / < < 3 _ / 4 < { | ] 1 / ^ 5 ^ < { ",
"~ { ] { ~ ^ / ( _ / _ _ : < [ } | { { 1 | | 1 _ / / _ { { { { _ _ / / < < < 2 / / / / / / / / < < 3 _ / 4 < { | ] 1 / ^ 5 ^ < { ",
"6 7 / ^ 8 9 ^ ~ 0 a a 5 9 7 ] b c { _ ] d d e _ 7 < / < ~ 7 ~ _ 1 1 / 7 5 8 9 8 5 ~ / / < ~ f 7 7 7 ^ a a 7 / / < ^ 6 9 9 a < { ",
"5 ~ _ ~ a ^ _ 1 _ ^ a 5 6 < ] b | _ _ ] d d ] 1 1 { < 7 a ^ ~ _ 1 1 1 1 1 < 7 ~ _ | ] { < 7 7 _ | 1 { { 1 | 1 _ ~ ^ 5 5 ^ ~ / { ",
"^ ~ < 5 g g ^ / < ^ 5 ^ _ { _ / < ~ / { 1 { / _ ] / 5 6 7 _ 1 / ~ 7 < | b e | ] d d e / a 5 ^ ~ < < / { 1 { ~ 6 g g 9 a < _ _ { ",
"h b h / 6 8 < | e | | e d ] < a a ~ / / < 7 ^ / h _ 5 ^ | i j | 7 a ~ { 1 _ _ | d k h / ^ 7 _ { / _ | h d h { ^ 5 a / 1 e h d k ",
"a _ ] _ a 8 7 { 1 < 5 a { _ 7 ^ < { ] ] 1 _ / / _ 1 | 1 / ^ a ^ < { 1 { _ ~ ^ ^ < _ { / ~ ^ ^ < _ < ~ < _ { _ 7 5 5 ^ ~ / < 7 ^ ",
"d b ] < ^ ^ < 7 6 g 6 < 1 _ ~ ~ / 1 ] ] 1 _ _ / / { | 1 { / < _ 1 | | 1 { < ^ a 7 ~ ~ 7 ^ ^ ~ 7 a a 7 / | e ] _ ^ 5 6 7 _ / < 7 ",
"{ { _ ~ ^ 7 _ < ^ 5 < { { / ~ < { e h h e e e e ] e e | / ~ 7 < / _ _ / / < ~ ~ / _ _ < ~ ~ < / < < < < _ { 1 1 | ] e | { _ / / ",
"9 ~ 1 { ~ ^ / 1 1 _ / _ { / < < _ 1 1 ( / < / _ 1 1 l < a 5 a < { | 1 / ^ ^ ~ { e b h | _ _ { < 5 ^ ~ / _ { | e e m ] _ ~ ~ ~ 7 ",
"5 ~ _ / ~ ~ { _ / < 1 ] _ < ~ < / _ / ~ ^ a ^ 7 ^ 7 7 7 ^ 7 _ ] h h e / 5 5 7 _ e b h ] | | e _ 5 7 _ 1 1 1 | | { ~ 6 6 a a a a ",
"~ 7 a 5 ^ / { ~ 5 7 n o / ^ 7 < _ | | 1 { { | { ^ ^ < _ 1 | e b b ] / a 6 5 ^ < _ 1 { { { | h h ] e h ] _ ~ 7 ~ < ~ 7 ^ a ^ ~ ~ ",
"5 7 { 1 / ^ 6 6 7 1 h p < 7 ~ / { | | | 1 _ ~ ^ a a < ] b e 1 1 1 _ q 5 / 1 ] ] _ ~ ^ ^ 7 7 7 ~ / / _ { { / 7 a 7 { b 1 5 a 7 < ",
"5 ~ { | { < 7 ~ _ ] b e / < / / / / < ~ 7 ^ ^ ~ 1 r | h h ] { 1 e e / ^ 7 { h d ] _ 7 ^ 7 ~ < _ 1 1 1 1 1 _ ~ ^ ^ ~ 1 | { { _ / ",
"6 a ~ < ~ ^ ^ 7 / _ _ _ { 1 1 1 { _ / < / _ { | h e ] e c 1 / 1 h k e < 6 < ] d e ( 7 a ^ ~ < _ _ < 7 ^ 7 7 7 ~ / 1 h e 1 1 { _ ",
"6 5 a a a a 7 _ ] e ] | | 1 { _ _ _ _ { 1 1 1 1 | { _ { _ < ^ / ] b ] ~ 9 ^ { ] 1 < a 5 a 0 < s b 1 ~ q a ^ ~ / 1 e d s ^ 7 ~ < ",
"e e | _ ~ ^ < { | | { | k d ] _ / _ { { / ^ 8 ^ e h e b h | / { ] h 1 7 6 7 / { < 7 a ^ ~ / / ] d | < a ^ ~ / < < < < 7 ^ 7 < / ",
"| { < ^ ^ 7 _ ] b b e 1 _ / / < / { e h e 1 { | t e | ] | _ 7 ~ / _ / ~ ~ < / / / < < < / _ { { / a 8 8 a ~ < ~ a 8 9 9 6 5 a a ",
"{ _ < ~ _ | b d b ] 1 ~ 9 a / / < < / < 7 7 1 ] u ^ 6 8 5 ^ 7 7 7 < { 1 / ^ a 7 1 ] ] _ < { h h 1 < a 5 5 ^ ^ a 5 5 a 5 6 5 5 a ",
"^ 7 < _ { 1 | | 1 _ / < ~ ~ 7 8 g 6 < _ _ ~ / _ ~ 5 9 9 a < 1 1 _ 7 a 5 a 9 g 8 ~ { 1 { / _ | t d | / 7 a a a 5 6 5 ^ a 6 5 a ^ ",
"5 7 { ] ] | { _ _ _ < 7 a 7 ^ 8 9 6 ~ / ~ ^ ~ { e | / ^ 5 6 5 ^ 7 ~ ~ < / 7 a a ^ ~ ~ ^ a 5 5 a a 5 6 a 7 ~ ~ ^ 5 a ^ 6 g 8 5 a ",
"^ / ] h ] { < / _ _ / ^ 9 5 ~ 7 ^ a 7 ^ 5 6 ~ / ~ < _ _ < 7 ^ ~ / { 1 | ] ] | { _ < ~ 7 7 ~ / { { / 7 a a a 5 5 ^ / | / 6 a ~ / ",
"a ~ _ _ 7 8 9 5 ^ ^ 6 8 ^ { | ( < ~ / < ~ ~ | ] ~ < { 1 { { | h b h 1 1 e b b e 1 ~ a a ~ 1 h d b ] { / < 7 ^ a ~ 1 v ] < _ ] h ",
"6 / e 1 ^ g 9 5 ^ ^ : ~ / _ / 7 ^ 7 ~ 7 7 ~ 1 | w x y z A ^ B C { w z y D E F F G z H H A w E E { { { _ / < < < / _ _ ~ ^ ~ / _ ",
"~ < < a 8 I 7 ~ 7 a 7 ~ 7 a 5 a 7 < ~ 7 ^ ~ _ { J K L M L N O J O N M P P Q M R J R M N J S S C < { { / 7 ^ < | e e { ^ 6 5 a ^ ",
"e < 6 a { h ] { _ 1 | { a 8 9 9 6 a ^ a ^ 7 < C E T R L M N R O O O K N M U Q L R R K O V W V O ^ ~ < ~ X ^ / ] b h 1 ~ a 7 / { ",
"5 8 a | d e ^ 6 ~ e h 1 ~ ^ a 5 6 6 a ^ ^ a a z R J Y T Y O K N K O Y V V R L L L M Q L R Y O A 8 a ^ a 8 8 a / _ < a 6 6 ^ / { ",
"6 6 a 7 ^ 6 8 < ] h / a / _ < ^ 5 6 a 7 7 a 8 Z M R V ` ` V J R R T ` ` T K L L L P  .P R T Y y 9 a ^ ^ 5 5 7 _ { / ^ 6 8 5 7 < ",
"a 7 ~ 5 8 6 ~ / < 7 / 1 _ / < ^ 6 8 5 7 < ^ 8 9 A ..L L L N K R J V S V R N R T V Y N K J S V w ^ < _ / : ^ 7 _ _ ~ 6 a _ 1 | ] ",
"5 7 < ~ : ^ 7 ^ a 7 1 ] / ~ ~ 7 ^ a ^ 7 7 ^ 6 6 K N Q  .+.U P N K R K K K L K Y W S J L A N O x z { ] ] / ^ 5 ^ ~ ~ a 7 _ _ _ _ ",
"1 | ] | _ 7 ^ ^ 7 7 ^ ~ | 1 < a a ^ < / < a 8 @.J J R K K K K K N M U N S V T S #.#.S R M M R y 6 < 1 1 ~ 5 6 ^ ~ < ~ < _ / < ~ ",
"{ 1 | { ~ a 5 5 5 5 9 5 e | 7 6 6 7 { ] | / 5 5 Y J R N M P M N R O J R P U U M O Y J K L N O Y { | 1 / a 6 5 7 ~ 7 6 ~ | { / ~ ",
"~ < < ~ ^ ^ 7 ~ < ~ a 5 7 7 7 ~ / 1 e h e | _ w J O K L M M L R T W $.%.K L L N R O R N P Q Q C i d ] / 7 7 / 1 1 < a ^ ~ ~ ~ < ",
"{ { { _ < < _ 1 | _ 7 5 8 5 < | h h e ] ] e b &.R O T W *.#.*.W S T T T T Y Y Y V V V T Y O K C h | _ ~ < { e d b e { ^ 9 5 < { ",
"7 7 7 ^ a ^ ~ / _ ~ 6 8 ~ { | e e ] 1 { | h i =.K K J V S V T Y Y T V J M M L N K O T V V Y R G | { ~ 7 ~ _ | | { 2 7 5 6 7 1 e ",
"-.M M Z  .P w V C N U ;.A R G >.V T C T E ,.*.'.S T O L Q Q M R J O K R Y K L N Y S S O N N J F *.T G V '.W w A ).@.A M P z R J ",
"L R O M +.!.Q N R R T S V V V T Y Y J J J O R J T L ~.~.N T S O N K V ` W Y O T $.{.].V K N Y V V K K T *.W O P P M L J S W W W ",
" .N T Y K M L L N K V *.*.S J K K O Y Y J B K R V S V V V T O N M M L O V J O T #.].#.T K L R J J L N ^.*.` Y K N K N O T T Y J ",
"Q R S S T Y T Y R P Q N V J M Q M O S W S T J R K T ` ` O M P R V S T J O N M N O T Y R N K J Y J N K Y W S O R K N P N J O K N ",
"V ` ` J L M K O K P Q /.S Y L M O S #.*.S Y J Y T O K K O J R N K Y #.*.J N L N R O O R O J V V J N L K J R z N R K Q (.V T J R ",
"Y S W J M Q L N L P M K Y R L N V $.{.$.S T T T Y V S V O N N O J O N N K K K R J Y J O R R R Y V O K B J O R T ` ` Y O J O O O ",
"J V W V R L R W ].$.S O J O R K K R O J T V W ` W T J K P  .H K T V L L Y T Y T V S S S S W ` V O R N P M O S S T Y T Y O J Y Y ",
"P P P M N O Y V V S S V O K K K _._.K K R J Y Y O L P L K R R T W ` Y K N K J T W ` ` W S S S :.Q K J J J T W V R Q U P K O O O ",
"R K R J T V Y O R Y W ` Y O J J Y Y Y J J J O R N  .+.N W $.#.` ` W T R N O T W W W S V T T Y /.Z J V Y L P N R R K :.O J T T T ",
"M J W W O P  .@.O V S V J J Y T T V V T Y J O O O M M J $.{.$.S J R N L N J V S J N P M L N L M N S W O U ~.U L O S $.F K O J J ",
"Q R S W J M P R W $.#.S R K R O J Y Y Y J J O Y V Y T ,.#.*.V Y Y Y K N O ` ].].S O L K O J O K K J Y O R R :.N M K W S Y V V T ",
"L L K O Y T J R K K R O O O J J Y T T V V V S S V S ` *.` T O V #.<.` K U O ` [.S O N R J J R N N P U  .L J ^.N P R ].*.J T T T ",
"V N  .P L N R Y Y O ` $.T Y T Y O R O V W S T Y V W ` S J N L R V ` *.Y Q M M U K L  .N R N O >.| 1 / ~ ^ 7 _ ] h b h ] { { { { ",
"#.W T V K U P Y W J R Y ` #.#.` V Y Y T V Y R K O V ` *.W V Y T T T Y N  .P K Y T O L P Q M K C ] _ ^ 5 5 ^ ~ ~ ~ ~ / < ~ ~ ~ < ",
"O K N O N M O $.}.*.V V S S V T Y Y T V S V T T V V V Y O R R O Y V S Y K L R T L P N U L S *.'.1 ^ g |.a < / ^ a 7 { / 7 ^ ^ ^ ",
"S R M J S ` #.#.S M M K R N L L K O J T V V S T R N M P M L N K O J T Y R P P L  .M V Y %.{.<.#.1 5 |.|.a ~ < a 6 a < < 7 ^ ^ ^ ",
"O L M T ` *.*.W Y P L O R N P P L R O R R R J R M U U P K Y Y O N M P P Q Q Q M K Y S W W V J E h 1 / ~ < / _ / ~ ~ ~ ^ a a a ^ ",
"P L Y #.W R N O Y K K R K M U Q L R O O R O Y V V O L P M N K L P P M N R 1.O 2.O N +.M M U M y ^ ^ 5 8 9 8 5 7 7 ^ 6 6 a 5 5 5 ",
"Y V W W T O K R J Y J K M K O K M M N K L M N O O J O R L P P N J Y R Y *.W T x L P Q P L N K B / 7 a a ~ / / ~ ~ / | / a ^ ~ < ",
"J V W ` V R P Q Q P M L R J R L P M R K N R ` #.O M M R Y Y R T ` ` R O #.$.*.S O L Q Q N Y *.3.4.| < ^ a 5 5 a ~ { h { a ~ { ] ",
"K R R R N M P Q P P P L J J K P Q M N P  .Q ^.` Y Z ~.P O J K Y W W M L ` *.` V J N Q Q M R T E 1 { / / / / / / / _ { / ~ _ ] h ",
"T O L Q P M N K N M P P N R R N N R J K M P O W ` O P P L K K O Y Y N L R R K N K R O J J J O B < / / < < / _ { 1 | | < 5.a 7 7 ",
"V Y R K O J O K N N R N ~.P R K M P N R R N K J V S Y 6.U L V T R L T T M P M L K O J T V V V Y < / / < ^ ^ 7 _ 1 | 1 < a 7 < / ",
"M L R T F S Y K N Y $.4.y Y *.F K Q L O Y O K L M T T Q 7.A ,.T M  .S *.R R O O x L P Q M y 8.(.6 7 _ 1 { _ { 1 _ ~ 8 9 8 a < 1 ",
"8 9.^ ~ < / < < / _ { { < ~ ~ 7 a 6 6 5 ^ ^ 5 a < / / _ / < < / { ] h h | / 0.6 6 5 ^ 7 ^ 5 8 9 6 ^ 7 ^ 6 8 5 < _ / 7 5 6 ^ < _ ",
"/ / < ~ 7 ^ a a ^ ~ / _ ~ ~ < < ~ ~ ~ / / 7 6 9 8 8 6 9.5 5 a ^ ~ _ 1 _ a ^ / { { _ / < < { | _ ^ / { _ ^ 6 6 ^ ~ ~ ^ 7 < _ 1 ] ",
"V ` ` J L M K O K P Q /.S Y L M O S #.*.S Y J Y T O K K O J R N K Y #.*.J N L N R O O R O J V V J N L K J R z N R K Q (.V T J R ",
"Y S W J M Q L N L P M K Y R L N V $.{.$.S T T T Y V S V O N N O J O N N K K K R J Y J O R R R Y V O K B J O R T ` ` Y O J O O O ",
"J V W V R L R W ].$.S O J O R K K R O J T V W ` W T J K P  .H K T V L L Y T Y T V S S S S W ` V O R N P M O S S T Y T Y O J Y Y ",
"P P P M N O Y V V S S V O K K K _._.K K R J Y Y O L P L K R R T W ` Y K N K J T W ` ` W S S S :.Q K J J J T W V R Q U P K O O O "};
